<?xml version="1.0" standalone="no"?>
<!DOCTYPE svg PUBLIC "-//W3C//DTD SVG 20010904//EN"
 "http://www.w3.org/TR/2001/REC-SVG-20010904/DTD/svg10.dtd">
<svg version="1.0" xmlns="http://www.w3.org/2000/svg"
 width="450.000000pt" height="310.000000pt" viewBox="0 0 450.000000 310.000000"
 preserveAspectRatio="xMidYMid meet">
<metadata>
Created by potrace 1.10, written by Peter Selinger 2001-2011
</metadata>
<g transform="translate(0.000000,310.000000) scale(0.100000,-0.100000)"
fill="#000000" stroke="none">
<path d="M858 3005 c-293 -202 -525 -472 -627 -726 -65 -164 -74 -215 -79
-456 -3 -158 -1 -223 7 -223 7 0 11 47 11 148 0 182 13 294 45 408 83 288 317
587 651 830 47 34 82 64 77 67 -4 3 -43 -19 -85 -48z"/>
<path d="M2000 3034 c-198 -53 -341 -250 -404 -554 -25 -122 -38 -296 -31
-415 11 -183 63 -445 88 -445 4 0 6 8 3 18 -36 116 -65 339 -66 499 -1 412
134 740 348 845 60 30 75 33 157 33 85 0 96 -2 167 -38 96 -47 185 -111 417
-299 230 -187 215 -176 210 -162 -6 15 -294 261 -406 345 -122 92 -213 145
-292 169 -74 23 -116 24 -191 4z"/>
<path d="M1017 3003 c-12 -14 -81 -92 -153 -172 -292 -327 -504 -604 -570
-746 -32 -69 -74 -214 -74 -254 0 -46 18 -16 34 57 20 92 75 226 125 302 104
162 406 528 604 733 42 44 78 85 81 93 9 24 -23 15 -47 -13z"/>
<path d="M3975 3019 c-75 -11 -114 -23 -195 -62 -82 -38 -215 -167 -255 -247
-61 -121 -67 -149 -74 -385 -7 -216 -8 -221 -36 -278 -34 -69 -88 -121 -159
-152 -61 -28 -101 -34 -224 -35 -60 0 -91 -4 -87 -10 9 -15 202 -12 263 4 104
28 193 101 235 195 19 40 22 73 28 261 6 198 8 221 33 294 50 148 153 266 290
336 97 49 194 69 356 71 110 2 112 2 45 9 -92 10 -147 9 -220 -1z"/>
<path d="M4278 2925 c-3 -3 -52 -14 -109 -25 -176 -32 -364 -94 -470 -154 -79
-45 -136 -102 -171 -174 l-33 -67 -6 -215 c-5 -185 -9 -223 -28 -274 -54 -151
-160 -247 -314 -288 -35 -9 -50 -9 -55 -1 -4 6 -40 10 -89 10 -73 0 -83 -2
-89 -19 -10 -33 16 -50 64 -42 36 6 42 10 42 30 0 15 6 24 15 24 9 0 15 -9 15
-25 0 -18 5 -25 20 -25 11 0 23 6 25 13 3 6 18 12 34 13 86 3 216 81 283 169
75 100 98 201 98 442 0 140 3 170 21 218 48 130 229 247 474 309 100 25 265
55 278 51 17 -7 41 11 33 24 -7 11 -29 15 -38 6z m-1310 -1223 c2 -14 -2 -22
-11 -22 -17 0 -26 19 -19 38 7 19 27 9 30 -16z"/>
<path d="M1024 2834 c-238 -159 -451 -385 -544 -578 -21 -44 -50 -121 -64
-170 -24 -81 -26 -104 -26 -288 0 -130 3 -197 10 -193 6 4 10 71 10 169 0 89
5 189 11 222 25 145 91 288 197 431 68 92 245 262 367 352 119 88 120 89 114
96 -3 3 -37 -16 -75 -41z"/>
<path d="M2001 2850 c-153 -32 -269 -183 -323 -423 -34 -151 -29 -577 8 -577
7 0 11 6 9 13 -3 6 -9 76 -14 154 -35 496 126 820 404 817 108 -2 230 -55 564
-248 102 -58 190 -106 198 -106 27 0 8 31 -22 36 -5 1 -77 41 -160 89 -376
219 -524 274 -664 245z"/>
<path d="M3970 2816 c-124 -27 -229 -111 -284 -226 -31 -65 -31 -65 -37 -285
-5 -202 -8 -225 -31 -287 -33 -88 -79 -158 -141 -214 -113 -102 -205 -134
-407 -142 -110 -5 -134 -8 -100 -13 134 -22 290 1 404 58 123 62 234 194 276
328 8 23 16 130 20 255 8 264 18 300 114 395 99 99 175 124 381 126 72 1 100
4 80 9 -47 12 -214 10 -275 -4z"/>
<path d="M2046 2805 c-223 -79 -323 -654 -190 -1095 14 -47 30 -89 35 -95 14
-14 12 0 -16 109 -53 210 -66 408 -40 609 36 278 137 457 258 457 56 0 181
-85 487 -330 162 -130 202 -157 120 -80 -143 134 -460 376 -545 416 -58 28
-58 28 -109 9z"/>
<path d="M1667 1827 c-15 -10 -16 -19 -8 -52 5 -22 9 -30 10 -19 1 32 61 50
61 19 0 -8 5 -15 11 -15 6 0 8 9 5 20 -3 11 -9 29 -12 40 -6 23 -41 27 -67 7z"/>
<path d="M196 1784 c-3 -9 -6 -27 -6 -42 0 -24 1 -24 13 -8 16 22 50 18 55 -7
3 -12 -3 -17 -22 -17 -22 0 -26 -4 -26 -30 0 -16 -4 -30 -10 -30 -16 0 -12
-46 5 -60 17 -14 65 -5 66 13 4 68 3 84 -5 79 -6 -3 -6 3 -2 14 11 25 12 77 2
92 -11 18 -63 15 -70 -4z m64 -155 c0 -13 -7 -19 -24 -19 -26 0 -41 14 -32 29
3 5 17 9 31 9 18 0 25 -6 25 -19z"/>
<path d="M1689 1748 c-4 -11 -6 -87 -2 -100 6 -22 55 -24 73 -3 13 16 5 75
-11 75 -5 0 -9 7 -9 15 0 9 -9 15 -25 15 -14 0 -25 -1 -26 -2z m61 -72 c0 -13
-20 -26 -41 -26 -5 0 -9 9 -9 20 0 15 7 20 25 20 15 0 25 -6 25 -14z"/>
<path d="M3290 1405 c-258 -68 -465 -235 -580 -470 -86 -175 -104 -287 -94
-594 4 -117 10 -207 14 -200 4 8 10 129 13 269 4 218 8 267 26 335 107 402
474 674 881 652 128 -7 209 -27 318 -78 261 -121 448 -364 491 -639 5 -36 12
-173 15 -305 3 -132 6 -242 7 -245 7 -22 17 138 18 290 1 243 -17 348 -85 497
-44 98 -105 182 -190 264 -86 81 -143 120 -247 169 -124 58 -192 72 -352 77
-124 3 -151 0 -235 -22z"/>
<path d="M827 1404 c-276 -61 -509 -242 -628 -489 -77 -159 -82 -186 -86 -508
-3 -183 -1 -287 5 -287 6 0 12 97 16 248 8 270 20 360 65 471 111 272 331 460
618 528 112 26 691 27 798 1 301 -73 547 -299 634 -581 33 -109 40 -177 42
-418 1 -125 5 -232 9 -238 9 -15 20 162 20 315 0 274 -59 459 -204 640 -121
150 -265 245 -466 305 -70 21 -96 23 -415 25 -273 3 -353 0 -408 -12z"/>
<path d="M977 1345 c-363 -69 -620 -315 -731 -698 -41 -140 -58 -292 -30 -264
3 3 16 61 29 129 47 252 128 414 284 568 91 90 167 141 272 183 136 54 182 62
369 62 152 0 185 -3 253 -22 200 -59 372 -182 477 -343 64 -100 155 -294 190
-408 41 -134 83 -340 76 -373 -3 -19 1 -32 15 -44 21 -20 20 -21 37 17 9 23 9
28 -2 28 -8 0 -17 25 -25 73 -18 105 -66 292 -97 378 -34 95 -125 277 -177
354 -115 170 -277 285 -488 345 -98 29 -337 36 -452 15z"/>
<path d="M3182 1240 c-172 -46 -305 -157 -386 -321 -64 -130 -87 -225 -93
-386 -3 -78 -2 -133 4 -133 5 0 14 60 20 133 27 296 116 481 288 598 108 74
182 94 345 93 106 0 153 -5 220 -22 284 -74 463 -261 554 -577 49 -171 104
-430 92 -437 -7 -5 -2 -17 15 -34 l27 -26 7 32 c4 18 3 35 -2 39 -5 3 -27 83
-47 176 -79 355 -152 520 -291 661 -79 80 -122 109 -223 152 -153 66 -393 90
-530 52z"/>
<path d="M3381 1124 c-107 -24 -204 -77 -286 -157 -79 -79 -115 -135 -154
-236 -24 -63 -25 -78 -29 -325 -2 -154 0 -262 5 -267 12 -12 23 158 23 343 0
153 11 210 57 305 68 140 211 259 358 298 77 21 223 21 299 0 186 -49 340
-202 401 -395 13 -43 19 -110 24 -302 3 -135 9 -249 12 -253 11 -10 22 339 15
431 -4 46 -14 108 -23 136 -91 307 -395 489 -702 422z"/>
<path d="M945 1120 c-245 -24 -452 -200 -522 -444 -22 -74 -26 -582 -5 -561 4
4 10 122 13 263 5 243 7 261 31 328 64 176 195 304 370 359 77 24 87 25 376
25 329 0 355 -4 477 -64 133 -66 251 -213 290 -362 9 -36 15 -102 15 -174 0
-168 12 -370 22 -370 4 0 8 112 8 248 0 279 -6 318 -67 436 -50 96 -156 202
-248 248 -130 66 -154 70 -430 73 -137 2 -286 0 -330 -5z"/>
<path d="M2667 373 c-4 -3 -6 -27 -6 -52 1 -25 3 -38 6 -29 9 36 83 34 83 -3
0 -15 -7 -19 -35 -19 -33 0 -35 -2 -35 -35 0 -19 -5 -35 -11 -35 -6 0 -9 -16
-7 -37 2 -30 8 -38 28 -43 58 -14 79 10 71 83 -4 37 -5 39 -12 17 -7 -25 -7
-25 -8 -2 -1 13 5 30 13 38 13 12 13 71 0 112 -4 13 -75 17 -87 5z m71 -205
c-2 -17 -10 -23 -28 -23 -18 0 -26 6 -28 23 -3 19 1 22 28 22 27 0 31 -3 28
-22z"/>
<path d="M162 358 c-7 -7 -12 -32 -11 -57 0 -38 2 -42 9 -23 14 34 67 31 81
-5 5 -15 8 -36 6 -47 -4 -20 -4 -19 -6 2 -1 18 -7 22 -36 22 -34 0 -35 -1 -35
-40 0 -39 1 -40 35 -40 28 0 35 -4 35 -20 0 -16 -7 -20 -35 -20 -28 0 -35 4
-35 19 0 11 -4 23 -10 26 -11 7 -14 -34 -4 -59 9 -24 80 -22 94 3 5 11 10 65
10 120 0 77 -4 103 -16 115 -18 19 -65 21 -82 4z"/>
</g>
</svg>
